<svg width="121" height="48" fill="none" xmlns="http://www.w3.org/2000/svg"><path d="M14.574 12.636c-.128-1.08-.646-1.917-1.556-2.514-.909-.596-2.024-.895-3.345-.895-.966 0-1.81.157-2.535.469-.718.313-1.279.742-1.683 1.29a3.09 3.09 0 00-.597 1.863c0 .583.138 1.083.415 1.503a3.7 3.7 0 001.087 1.033c.44.27.902.494 1.385.671.483.17.927.31 1.332.416l2.216.596c.568.15 1.2.355 1.896.618a8.754 8.754 0 012.013 1.076 5.479 5.479 0 011.598 1.726c.42.703.629 1.566.629 2.589 0 1.179-.309 2.244-.927 3.196-.61.951-1.506 1.708-2.684 2.269-1.172.561-2.596.841-4.273.841-1.562 0-2.915-.252-4.058-.756-1.137-.504-2.032-1.207-2.685-2.11-.646-.901-1.012-1.949-1.097-3.142h2.727c.07.824.348 1.506.83 2.046.49.532 1.109.93 1.854 1.193a7.504 7.504 0 002.43.383c1.008 0 1.914-.163 2.716-.49.803-.334 1.438-.795 1.907-1.385.469-.596.703-1.293.703-2.088 0-.724-.202-1.314-.607-1.768-.405-.455-.938-.824-1.598-1.108a16.797 16.797 0 00-2.141-.746l-2.685-.767c-1.705-.49-3.054-1.19-4.048-2.099-.995-.909-1.492-2.099-1.492-3.569 0-1.221.33-2.287.99-3.196.669-.916 1.563-1.626 2.686-2.13 1.129-.512 2.39-.767 3.782-.767 1.406 0 2.656.252 3.75.756 1.093.497 1.96 1.179 2.599 2.045.646.867.987 1.85 1.023 2.951h-2.557zM21.773 29V7.182H34.94v2.344H24.415v7.372h9.844v2.343h-9.844v7.415h10.696V29H21.773zm35.486-15h-2.642a5.493 5.493 0 00-.82-2.003 5.463 5.463 0 00-1.406-1.449 5.97 5.97 0 00-1.822-.895 7.276 7.276 0 00-2.088-.298c-1.321 0-2.518.334-3.59 1.002-1.066.667-1.914 1.65-2.546 2.95-.625 1.3-.938 2.895-.938 4.784 0 1.89.313 3.484.938 4.783.632 1.3 1.48 2.284 2.546 2.951 1.072.668 2.269 1.002 3.59 1.002.724 0 1.42-.1 2.088-.299a6.112 6.112 0 001.822-.884 5.617 5.617 0 001.406-1.46c.39-.582.664-1.25.82-2.002h2.642c-.199 1.115-.56 2.113-1.086 2.993a8.182 8.182 0 01-1.96 2.248 8.583 8.583 0 01-2.632 1.396 9.8 9.8 0 01-3.1.48c-1.86 0-3.516-.455-4.965-1.364-1.448-.91-2.588-2.202-3.42-3.878-.83-1.676-1.246-3.665-1.246-5.966s.416-4.29 1.247-5.966c.83-1.676 1.97-2.969 3.42-3.878 1.448-.909 3.103-1.363 4.964-1.363 1.1 0 2.134.16 3.1.479.973.32 1.85.788 2.631 1.406a8.036 8.036 0 011.96 2.237c.526.874.889 1.872 1.087 2.994zm18.588-6.818h2.642v14.446c0 1.491-.352 2.823-1.055 3.995-.696 1.165-1.68 2.084-2.95 2.76-1.272.667-2.763 1-4.475 1-1.712 0-3.203-.333-4.475-1-1.27-.676-2.258-1.595-2.961-2.76-.696-1.172-1.044-2.504-1.044-3.995V7.182h2.642v14.233c0 1.065.234 2.013.703 2.844a5.041 5.041 0 002.003 1.95c.873.469 1.917.703 3.132.703 1.214 0 2.258-.234 3.132-.703.874-.476 1.541-1.126 2.003-1.95.469-.83.703-1.779.703-2.844V7.182zM83.765 29V7.182h7.372c1.705 0 3.104.291 4.198.873 1.093.576 1.903 1.368 2.429 2.376.525 1.009.788 2.156.788 3.441 0 1.286-.263 2.426-.788 3.42-.526.994-1.332 1.775-2.419 2.344-1.086.56-2.475.841-4.165.841h-5.966v-2.386h5.88c1.165 0 2.103-.17 2.813-.512.718-.34 1.236-.823 1.556-1.448.326-.632.49-1.385.49-2.259 0-.873-.164-1.637-.49-2.29-.327-.654-.85-1.158-1.566-1.513-.718-.362-1.666-.543-2.845-.543h-4.645V29h-2.642zm10.27-9.801L99.405 29h-3.069l-5.284-9.801h2.983zM103.849 29h-2.769l8.011-21.818h2.727L119.83 29h-2.77l-6.52-18.367h-.171L103.849 29zm1.023-8.523h11.165v2.344h-11.165v-2.344zM1.761 38.727V46h-.88v-7.273h.88zm12.333 0V46h-.852l-3.963-5.71h-.071V46h-.88v-7.273h.851l3.978 5.725h.07v-5.725h.867zm6.563 0h1.05l2.472 6.037h.085l2.472-6.037h1.051V46h-.824v-5.526h-.07L24.618 46h-.795l-2.273-5.526h-.07V46h-.825v-7.273zm19.832 3.637c0 .767-.138 1.43-.415 1.988-.277.559-.657.99-1.14 1.293-.483.303-1.035.454-1.655.454-.62 0-1.172-.151-1.655-.454-.483-.303-.863-.734-1.14-1.293-.277-.558-.415-1.221-.415-1.988 0-.767.138-1.43.415-1.989.277-.559.657-.99 1.14-1.293.483-.303 1.035-.454 1.655-.454.62 0 1.172.151 1.655.454.483.303.863.734 1.14 1.293.277.559.415 1.222.415 1.989zm-.852 0c0-.63-.105-1.162-.316-1.595-.208-.433-.491-.761-.849-.983a2.201 2.201 0 00-1.193-.334c-.44 0-.84.111-1.197.334-.355.222-.638.55-.848.983-.209.433-.313.965-.313 1.595s.104 1.16.313 1.594c.21.433.493.761.848.984.358.222.757.334 1.197.334.44 0 .838-.112 1.193-.334.358-.223.64-.55.849-.984.21-.433.316-.965.316-1.594zm7.09-3.637l2.159 6.122h.085l2.159-6.122h.923L49.383 46h-.91l-2.67-7.273h.924zm12.14 0V46h-.88v-7.273h.88zM65.433 46v-7.273h.88v6.492h3.381V46h-4.261zm11.305-7.273V46h-.88v-7.273h.88zM83.602 46h-.923l2.67-7.273h.91L88.929 46h-.923l-2.174-6.122h-.056L83.602 46zm.341-2.84h3.722v.78h-3.722v-.78zM94.862 46v-7.273h2.457c.569 0 1.035.097 1.4.292.364.191.634.455.81.791.174.337.262.719.262 1.147 0 .429-.088.809-.263 1.14a1.852 1.852 0 01-.806.782c-.362.187-.825.28-1.388.28h-1.99v-.795h1.961c.388 0 .7-.057.938-.17.239-.114.412-.275.518-.484a1.62 1.62 0 00.163-.753c0-.29-.054-.545-.163-.763a1.114 1.114 0 00-.522-.504c-.239-.121-.555-.181-.948-.181h-1.548V46h-.881zm3.423-3.267l1.79 3.267h-1.023l-1.761-3.267h.994zm8.654-4.006V46h-.881v-7.273h.881zM113.803 46h-.923l2.67-7.273h.909L119.13 46h-.923l-2.174-6.122h-.057L113.803 46zm.341-2.84h3.722v.78h-3.722v-.78z" fill="#0D1739"/></svg>