<svg width="121" height="48" viewBox="0 0 121 48" fill="none" xmlns="http://www.w3.org/2000/svg">
<path d="M14.5739 12.6364C14.446 11.5568 13.9276 10.7188 13.0185 10.1222C12.1094 9.52557 10.9943 9.22727 9.6733 9.22727C8.70739 9.22727 7.86222 9.38352 7.13778 9.69602C6.42045 10.0085 5.85938 10.4382 5.45455 10.9851C5.05682 11.532 4.85795 12.1534 4.85795 12.8494C4.85795 13.4318 4.99645 13.9325 5.27344 14.3516C5.55753 14.7635 5.91974 15.108 6.36009 15.3849C6.80043 15.6548 7.26207 15.8786 7.74503 16.0561C8.22798 16.2266 8.67188 16.3651 9.0767 16.4716L11.2926 17.0682C11.8608 17.2173 12.4929 17.4233 13.1889 17.6861C13.892 17.9489 14.5632 18.3075 15.2024 18.7621C15.8487 19.2095 16.3814 19.7848 16.8004 20.4879C17.2195 21.1911 17.429 22.054 17.429 23.0767C17.429 24.2557 17.12 25.321 16.5021 26.2727C15.8913 27.2244 14.9964 27.9808 13.8175 28.5419C12.6456 29.103 11.2216 29.3835 9.54545 29.3835C7.98295 29.3835 6.62997 29.1314 5.48651 28.6271C4.35014 28.1229 3.45526 27.4197 2.80185 26.5178C2.15554 25.6158 1.78977 24.5682 1.70455 23.375H4.43182C4.50284 24.1989 4.77983 24.8807 5.26278 25.4205C5.75284 25.9531 6.37074 26.3509 7.11648 26.6136C7.86932 26.8693 8.67898 26.9972 9.54545 26.9972C10.554 26.9972 11.4595 26.8338 12.2621 26.5071C13.0646 26.1733 13.7003 25.7116 14.169 25.1222C14.6378 24.5256 14.8722 23.8295 14.8722 23.0341C14.8722 22.3097 14.6697 21.7202 14.2649 21.2656C13.8601 20.8111 13.3274 20.4418 12.6669 20.1577C12.0064 19.8736 11.2926 19.625 10.5256 19.4119L7.84091 18.6449C6.13636 18.1548 4.78693 17.4553 3.79261 16.5462C2.7983 15.6371 2.30114 14.4474 2.30114 12.9773C2.30114 11.7557 2.63139 10.6903 3.2919 9.78125C3.95952 8.86506 4.8544 8.15483 5.97656 7.65057C7.10582 7.1392 8.36648 6.88352 9.75852 6.88352C11.1648 6.88352 12.4148 7.13565 13.5085 7.63991C14.6023 8.13707 15.4688 8.81889 16.108 9.68537C16.7543 10.5518 17.0952 11.5355 17.1307 12.6364H14.5739ZM21.7729 29V7.18182H34.9405V9.52557H24.415V16.8977H34.2587V19.2415H24.415V26.6562H35.111V29H21.7729ZM57.2594 14H54.6174C54.4611 13.2401 54.1877 12.5724 53.7971 11.9972C53.4135 11.4219 52.9448 10.9389 52.3908 10.5483C51.8439 10.1506 51.2367 9.85227 50.5691 9.65341C49.9015 9.45455 49.2054 9.35511 48.481 9.35511C47.16 9.35511 45.9632 9.68892 44.8908 10.3565C43.8255 11.0241 42.9767 12.0078 42.3446 13.3075C41.7196 14.6072 41.4071 16.2017 41.4071 18.0909C41.4071 19.9801 41.7196 21.5746 42.3446 22.8743C42.9767 24.174 43.8255 25.1577 44.8908 25.8253C45.9632 26.4929 47.16 26.8267 48.481 26.8267C49.2054 26.8267 49.9015 26.7273 50.5691 26.5284C51.2367 26.3295 51.8439 26.0348 52.3908 25.6442C52.9448 25.2464 53.4135 24.7599 53.7971 24.1847C54.1877 23.6023 54.4611 22.9347 54.6174 22.1818H57.2594C57.0605 23.2969 56.6983 24.2947 56.1728 25.1754C55.6472 26.0561 54.9938 26.8054 54.2125 27.4233C53.4313 28.0341 52.5542 28.4993 51.5811 28.8189C50.6152 29.1385 49.5819 29.2983 48.481 29.2983C46.6202 29.2983 44.9654 28.8438 43.5165 27.9347C42.0676 27.0256 40.9277 25.733 40.0968 24.0568C39.2658 22.3807 38.8503 20.392 38.8503 18.0909C38.8503 15.7898 39.2658 13.8011 40.0968 12.125C40.9277 10.4489 42.0676 9.15625 43.5165 8.24716C44.9654 7.33807 46.6202 6.88352 48.481 6.88352C49.5819 6.88352 50.6152 7.04332 51.5811 7.36293C52.5542 7.68253 53.4313 8.15128 54.2125 8.76918C54.9938 9.37997 55.6472 10.1257 56.1728 11.0064C56.6983 11.88 57.0605 12.8778 57.2594 14ZM75.8469 7.18182H78.489V21.6278C78.489 23.1193 78.1374 24.451 77.4343 25.6229C76.7383 26.7876 75.7546 27.7074 74.4833 28.3821C73.212 29.0497 71.7205 29.3835 70.0089 29.3835C68.2972 29.3835 66.8058 29.0497 65.5344 28.3821C64.2631 27.7074 63.2759 26.7876 62.5728 25.6229C61.8768 24.451 61.5288 23.1193 61.5288 21.6278V7.18182H64.1708V21.4148C64.1708 22.4801 64.4052 23.4283 64.8739 24.2592C65.3427 25.0831 66.0103 25.733 66.8768 26.2088C67.7504 26.6776 68.7944 26.9119 70.0089 26.9119C71.2234 26.9119 72.2674 26.6776 73.141 26.2088C74.0146 25.733 74.6822 25.0831 75.1438 24.2592C75.6126 23.4283 75.8469 22.4801 75.8469 21.4148V7.18182ZM83.7651 29V7.18182H91.1373C92.8418 7.18182 94.2409 7.47301 95.3347 8.0554C96.4284 8.63068 97.2381 9.42258 97.7637 10.4311C98.2892 11.4396 98.552 12.5866 98.552 13.8722C98.552 15.1577 98.2892 16.2976 97.7637 17.2919C97.2381 18.2862 96.432 19.0675 95.3453 19.6357C94.2587 20.1967 92.8702 20.4773 91.1799 20.4773H85.214V18.0909H91.0946C92.2594 18.0909 93.1969 17.9205 93.9071 17.5795C94.6245 17.2386 95.1429 16.7557 95.4625 16.1307C95.7892 15.4986 95.9526 14.7457 95.9526 13.8722C95.9526 12.9986 95.7892 12.2351 95.4625 11.5817C95.1358 10.9283 94.6138 10.424 93.8965 10.0689C93.1792 9.70668 92.231 9.52557 91.052 9.52557H86.4071V29H83.7651ZM94.035 19.1989L99.4043 29H96.3361L91.052 19.1989H94.035ZM103.849 29H101.08L109.091 7.18182H111.818L119.83 29H117.06L110.54 10.6335H110.369L103.849 29ZM104.872 20.4773H116.037V22.821H104.872V20.4773Z" fill="#0D1739"/>
<path d="M1.76136 38.7273V46H0.880682V38.7273H1.76136ZM14.0942 38.7273V46H13.2419L9.27887 40.2898H9.20785V46H8.32717V38.7273H9.17944L13.1567 44.4517H13.2277V38.7273H14.0942ZM20.6565 38.7273H21.7076L24.1792 44.7642H24.2644L26.736 38.7273H27.7871V46H26.9633V40.4744H26.8923L24.6195 46H23.8241L21.5513 40.4744H21.4803V46H20.6565V38.7273ZM40.4893 42.3636C40.4893 43.1307 40.3508 43.7936 40.0738 44.3523C39.7968 44.911 39.4169 45.3419 38.9339 45.6449C38.451 45.9479 37.8994 46.0994 37.2791 46.0994C36.6588 46.0994 36.1072 45.9479 35.6243 45.6449C35.1413 45.3419 34.7613 44.911 34.4843 44.3523C34.2074 43.7936 34.0689 43.1307 34.0689 42.3636C34.0689 41.5966 34.2074 40.9337 34.4843 40.375C34.7613 39.8163 35.1413 39.3854 35.6243 39.0824C36.1072 38.7794 36.6588 38.6278 37.2791 38.6278C37.8994 38.6278 38.451 38.7794 38.9339 39.0824C39.4169 39.3854 39.7968 39.8163 40.0738 40.375C40.3508 40.9337 40.4893 41.5966 40.4893 42.3636ZM39.637 42.3636C39.637 41.7339 39.5317 41.2024 39.321 40.7692C39.1127 40.3359 38.8297 40.008 38.4723 39.7855C38.1172 39.563 37.7194 39.4517 37.2791 39.4517C36.8387 39.4517 36.4398 39.563 36.0824 39.7855C35.7272 40.008 35.4443 40.3359 35.2336 40.7692C35.0253 41.2024 34.9211 41.7339 34.9211 42.3636C34.9211 42.9934 35.0253 43.5249 35.2336 43.9581C35.4443 44.3913 35.7272 44.7192 36.0824 44.9418C36.4398 45.1643 36.8387 45.2756 37.2791 45.2756C37.7194 45.2756 38.1172 45.1643 38.4723 44.9418C38.8297 44.7192 39.1127 44.3913 39.321 43.9581C39.5317 43.5249 39.637 42.9934 39.637 42.3636ZM46.7266 38.7273L48.8857 44.8494H48.971L51.13 38.7273H52.0533L49.3829 46H48.4738L45.8033 38.7273H46.7266ZM58.8668 38.7273V46H57.9862V38.7273H58.8668ZM65.4326 46V38.7273H66.3133V45.2188H69.694V46H65.4326ZM76.7383 38.7273V46H75.8576V38.7273H76.7383ZM83.6024 46H82.6791L85.3496 38.7273H86.2587L88.9291 46H88.0058L85.8325 39.8778H85.7757L83.6024 46ZM83.9433 43.1591H87.6649V43.9403H83.9433V43.1591ZM94.8619 46V38.7273H97.3193C97.8875 38.7273 98.3539 38.8243 98.7185 39.0185C99.0831 39.2102 99.3529 39.4742 99.5281 39.8104C99.7033 40.1465 99.7909 40.5289 99.7909 40.9574C99.7909 41.3859 99.7033 41.7659 99.5281 42.0973C99.3529 42.4287 99.0842 42.6892 98.722 42.8786C98.3598 43.0656 97.897 43.1591 97.3335 43.1591H95.3449V42.3636H97.3051C97.6934 42.3636 98.0059 42.3068 98.2426 42.1932C98.4817 42.0795 98.6546 41.9186 98.7611 41.7102C98.87 41.4995 98.9244 41.2486 98.9244 40.9574C98.9244 40.6662 98.87 40.4117 98.7611 40.1939C98.6522 39.9761 98.4782 39.808 98.2391 39.6896C98 39.5689 97.6839 39.5085 97.2909 39.5085H95.7426V46H94.8619ZM98.2852 42.733L100.075 46H99.0523L97.2909 42.733H98.2852ZM106.939 38.7273V46H106.058V38.7273H106.939ZM113.803 46H112.88L115.55 38.7273H116.459L119.13 46H118.207L116.033 39.8778H115.976L113.803 46ZM114.144 43.1591H117.866V43.9403H114.144V43.1591Z" fill="#0D1739"/>
</svg>
